<?xml version="1.0" encoding="UTF-8"?>
<svg id="Vrstva_1" data-name="Vrstva 1" xmlns="http://www.w3.org/2000/svg" viewBox="0 0 231.98 104.36">
  <defs>
    <style>
      .cls-1 {
        fill: #fff;
      }
    </style>
  </defs>
  <path class="cls-1" d="M92.98.25h-43.38v14.31c2.37.81,4.64,1.83,6.79,3.05h10.56s26.03,0,26.03,0c15.27,0,28.26,9.92,32.88,23.65,1.51-7.41,4.53-14.27,8.69-20.26C125.06,8.4,109.97.25,92.98.25"/>
  <path class="cls-1" d="M179.73.26c-28.75,0-52.06,23.3-52.06,52.06,0,19.13-15.56,34.7-34.7,34.7h-26.03l-.07-.04h-10.43c-2.18,1.24-4.49,2.29-6.91,3.1l.06,14.29h43.38c28.75,0,52.05-23.3,52.05-52.05,0-19.13,15.57-34.7,34.7-34.7s34.7,15.57,34.7,34.7-15.57,34.7-34.7,34.7c-15.23,0-28.19-9.86-32.85-23.53-1.48,7.42-4.45,14.3-8.6,20.32,9.51,12.5,24.53,20.56,41.44,20.56,28.75,0,52.06-23.3,52.06-52.05S208.48.26,179.73.26"/>
  <path class="cls-1" d="M64.62,56.43h8.73c.14-1.36.23-2.73.23-4.1,0-20.33-16.46-36.8-36.79-36.8S0,32,0,52.32s16.48,36.77,36.79,36.77c16.41,0,30.29-10.72,35.04-25.55h-16.63c-3.8,6.67-11.55,9.99-18.4,9.99-9.6,0-18.56-8.15-19.51-17.11h47.34ZM18.23,45.07c1.59-7.36,9.42-13.98,18.56-13.98s16.91,6.36,18.57,13.98H18.23Z"/>
  <g>
    <path class="cls-1" d="M93.12,0h-43.4v14.31c2.37.81,4.64,1.83,6.79,3.05h10.57s26.04,0,26.04,0c15.27,0,28.27,9.93,32.9,23.66,1.51-7.41,4.53-14.27,8.69-20.27C125.21,8.15,110.12,0,93.12,0"/>
    <g>
      <path class="cls-1" d="M179.91,0C151.15,0,127.83,23.31,127.83,52.08c0,19.14-15.57,34.71-34.71,34.71h-26.04l-.07-.04h-10.43c-2.19,1.24-4.5,2.29-6.91,3.1l.06,14.29h43.4c28.76,0,52.07-23.31,52.07-52.07,0-19.14,15.57-34.72,34.72-34.72s34.72,15.58,34.72,34.72-15.58,34.71-34.72,34.71c-15.23,0-28.2-9.86-32.86-23.55-1.48,7.43-4.45,14.31-8.6,20.33,9.52,12.5,24.54,20.57,41.46,20.57,28.76,0,52.08-23.31,52.08-52.07S208.67,0,179.91,0"/>
      <path class="cls-1" d="M64.75,56.2h8.73c.14-1.36.23-2.73.23-4.11,0-20.33-16.47-36.82-36.8-36.82S.11,31.76.11,52.09s16.48,36.79,36.8,36.79c16.42,0,30.3-10.73,35.05-25.56h-16.64c-3.81,6.68-11.56,10-18.41,10-9.6,0-18.57-8.16-19.51-17.12h47.35ZM18.34,44.84c1.6-7.37,9.42-13.99,18.57-13.99s16.92,6.36,18.58,13.99H18.34Z"/>
    </g>
  </g>
</svg>